<svg width="49" height="45" viewBox="0 0 49 45" fill="none" xmlns="http://www.w3.org/2000/svg">
<ellipse opacity="0.1" cx="24.5" cy="22.5" rx="24.5" ry="22.5" fill="#1C2438"/>
<path d="M34.2143 21.5834C34.2178 22.6832 33.9057 23.7683 33.3036 24.75C32.5896 25.9265 31.492 26.916 30.1337 27.6078C28.7754 28.2995 27.2101 28.6662 25.6131 28.6667C24.2775 28.6696 22.96 28.4126 21.7679 27.9167L16 29.5L17.9226 24.75C17.3205 23.7683 17.0084 22.6832 17.0119 21.5834C17.0125 20.2682 17.4578 18.9791 18.2978 17.8605C19.1377 16.7419 20.3393 15.838 21.7679 15.25C22.96 14.7541 24.2775 14.4972 25.6131 14.5H26.119C28.2282 14.5959 30.2203 15.329 31.714 16.5591C33.2077 17.7892 34.0979 19.4297 34.2143 21.1667V21.5834Z" stroke="#1C2438" stroke-width="1.66667" stroke-linecap="round" stroke-linejoin="round"/>
</svg>
