<svg width="168" height="16" viewBox="0 0 168 16" fill="none" xmlns="http://www.w3.org/2000/svg">
<path d="M8.78125 11.25C8.78125 10.931 8.71289 10.6543 8.57617 10.4199C8.43945 10.1855 8.17578 9.96419 7.78516 9.75586C7.40104 9.54102 6.83138 9.31315 6.07617 9.07227C5.43815 8.86393 4.82943 8.62956 4.25 8.36914C3.67708 8.10221 3.16927 7.79297 2.72656 7.44141C2.28385 7.08984 1.93555 6.67969 1.68164 6.21094C1.42773 5.74219 1.30078 5.19531 1.30078 4.57031C1.30078 3.76953 1.52865 3.07292 1.98438 2.48047C2.4401 1.88151 3.0651 1.41602 3.85938 1.08398C4.66016 0.751953 5.57487 0.585938 6.60352 0.585938C7.6582 0.585938 8.57943 0.771484 9.36719 1.14258C10.1549 1.51367 10.7637 2.03125 11.1934 2.69531C11.6296 3.35286 11.8477 4.11458 11.8477 4.98047H8.79102C8.79102 4.59635 8.70964 4.25781 8.54688 3.96484C8.38411 3.66536 8.13672 3.43424 7.80469 3.27148C7.47917 3.10221 7.0625 3.01758 6.55469 3.01758C6.06641 3.01758 5.65951 3.08919 5.33398 3.23242C5.00846 3.37565 4.76432 3.56445 4.60156 3.79883C4.44531 4.0332 4.36719 4.29688 4.36719 4.58984C4.36719 4.89583 4.47461 5.16276 4.68945 5.39062C4.9043 5.61849 5.2168 5.83008 5.62695 6.02539C6.03711 6.21419 6.53516 6.39974 7.12109 6.58203C8.15625 6.89453 9.02539 7.26237 9.72852 7.68555C10.4316 8.10872 10.959 8.61003 11.3105 9.18945C11.6686 9.76237 11.8477 10.4427 11.8477 11.2305C11.8477 12.0638 11.6328 12.7767 11.2031 13.3691C10.7799 13.9616 10.181 14.4141 9.40625 14.7266C8.63151 15.0391 7.72005 15.1953 6.67188 15.1953C5.95573 15.1953 5.2526 15.1042 4.5625 14.9219C3.87891 14.7331 3.25716 14.4466 2.69727 14.0625C2.14388 13.6719 1.70117 13.1803 1.36914 12.5879C1.03711 11.9954 0.871094 11.2923 0.871094 10.4785H3.94727C3.94727 10.9017 4.00911 11.2598 4.13281 11.5527C4.26302 11.8392 4.44531 12.0736 4.67969 12.2559C4.92057 12.4382 5.20703 12.5716 5.53906 12.6562C5.8776 12.7344 6.25521 12.7734 6.67188 12.7734C7.16016 12.7734 7.55729 12.7083 7.86328 12.5781C8.17578 12.4414 8.4069 12.2591 8.55664 12.0312C8.70638 11.7969 8.78125 11.5365 8.78125 11.25ZM19.0887 6.58203H12.8484V4.43359H19.0887V6.58203ZM17.3016 1.82617V11.6992C17.3016 11.9857 17.3374 12.207 17.409 12.3633C17.4871 12.5195 17.6076 12.627 17.7703 12.6855C17.9331 12.7441 18.1349 12.7734 18.3758 12.7734C18.5516 12.7734 18.7078 12.7669 18.8445 12.7539C18.9812 12.7409 19.0984 12.7246 19.1961 12.7051L19.1863 14.9316C18.9454 15.0163 18.6818 15.0814 18.3953 15.127C18.1154 15.1725 17.7996 15.1953 17.448 15.1953C16.8165 15.1953 16.2664 15.0911 15.7977 14.8828C15.3354 14.668 14.9773 14.3294 14.7234 13.8672C14.476 13.3984 14.3523 12.7865 14.3523 12.0312V1.82617H17.3016ZM27.0035 4.43359H29.9527V15H27.1891L27.0035 12.4512V4.43359ZM28.1852 10.2441C28.1852 11.1947 28.0387 12.0443 27.7457 12.793C27.4592 13.5352 27.023 14.1211 26.4371 14.5508C25.8577 14.9805 25.1253 15.1953 24.2398 15.1953C23.1982 15.1953 22.3518 14.8926 21.7008 14.2871C21.0562 13.6751 20.734 12.6693 20.734 11.2695V4.43359H23.6832V11.2891C23.6832 11.6471 23.7418 11.9401 23.859 12.168C23.9827 12.3893 24.152 12.5521 24.3668 12.6562C24.5882 12.7539 24.8388 12.8027 25.1187 12.8027C25.6852 12.8027 26.1279 12.6921 26.4469 12.4707C26.7724 12.2493 27.0003 11.9466 27.1305 11.5625C27.2672 11.1784 27.3355 10.7454 27.3355 10.2637L28.1852 10.2441ZM38.4242 0H41.393V15H38.727L38.4242 12.6465V0ZM31.7934 9.63867C31.7934 8.56445 31.9529 7.6237 32.2719 6.81641C32.5974 6.0026 33.0661 5.37109 33.6781 4.92188C34.2966 4.46615 35.0486 4.23828 35.934 4.23828C36.7608 4.23828 37.4509 4.47591 38.0043 4.95117C38.5642 5.41992 39.0036 6.06445 39.3227 6.88477C39.6482 7.69857 39.8728 8.62305 39.9965 9.6582V9.90234C39.8728 10.8854 39.6482 11.7773 39.3227 12.5781C39.0036 13.3789 38.5642 14.0169 38.0043 14.4922C37.4509 14.9609 36.7543 15.1953 35.9145 15.1953C35.0421 15.1953 34.2966 14.9642 33.6781 14.502C33.0661 14.0332 32.5974 13.3952 32.2719 12.5879C31.9529 11.7806 31.7934 10.8659 31.7934 9.84375V9.63867ZM34.7426 9.84375C34.7426 10.3906 34.8044 10.8887 34.9281 11.3379C35.0518 11.7871 35.2536 12.1452 35.5336 12.4121C35.8135 12.6725 36.1911 12.8027 36.6664 12.8027C37.1352 12.8027 37.5193 12.6986 37.8188 12.4902C38.1182 12.2754 38.3461 11.9792 38.5023 11.6016C38.6586 11.224 38.7497 10.7878 38.7758 10.293V9.27734C38.7628 8.85417 38.7074 8.47982 38.6098 8.1543C38.5186 7.82227 38.3884 7.54557 38.2191 7.32422C38.0564 7.09635 37.8448 6.92383 37.5844 6.80664C37.3305 6.68945 37.031 6.63086 36.6859 6.63086C36.2172 6.63086 35.8396 6.76432 35.5531 7.03125C35.2667 7.29167 35.0583 7.64974 34.9281 8.10547C34.8044 8.55469 34.7426 9.06576 34.7426 9.63867V9.84375ZM48.6535 15.1953C47.5402 15.1953 46.5865 14.9642 45.7922 14.502C45.0044 14.0397 44.399 13.4212 43.9758 12.6465C43.5591 11.8717 43.3508 11.0156 43.3508 10.0781V9.69727C43.3508 8.64258 43.5493 7.70508 43.9465 6.88477C44.3501 6.05794 44.923 5.41016 45.6652 4.94141C46.4074 4.47266 47.2928 4.23828 48.3215 4.23828C49.3436 4.23828 50.203 4.45312 50.8996 4.88281C51.5962 5.3125 52.1236 5.91797 52.4816 6.69922C52.8397 7.47396 53.0187 8.38542 53.0187 9.43359V10.6836H44.591V8.70117H50.1184V8.4668C50.1184 8.10221 50.0533 7.77995 49.923 7.5C49.7928 7.22005 49.5943 7.00195 49.3273 6.8457C49.0669 6.68945 48.7251 6.61133 48.302 6.61133C47.8202 6.61133 47.4328 6.74805 47.1398 7.02148C46.8469 7.29492 46.632 7.66276 46.4953 8.125C46.3651 8.58724 46.3 9.11133 46.3 9.69727V10.0781C46.3 10.6185 46.4009 11.0938 46.6027 11.5039C46.8046 11.9141 47.0943 12.2363 47.4719 12.4707C47.8495 12.6986 48.3052 12.8125 48.8391 12.8125C49.3404 12.8125 49.8091 12.7214 50.2453 12.5391C50.6815 12.3503 51.0526 12.0573 51.3586 11.6602L52.7844 13.291C52.4523 13.7663 51.938 14.2025 51.2414 14.5996C50.5513 14.9967 49.6887 15.1953 48.6535 15.1953ZM57.6426 15H54.6934V4.43359H57.4668L57.6426 6.68945V15ZM56.4316 9.4043C56.4316 8.33659 56.6042 7.41862 56.9492 6.65039C57.2943 5.87565 57.7793 5.27995 58.4043 4.86328C59.0293 4.44661 59.7552 4.23828 60.582 4.23828C61.2461 4.23828 61.8255 4.36849 62.3203 4.62891C62.8216 4.88932 63.2122 5.31576 63.4922 5.9082C63.7786 6.49414 63.9219 7.29167 63.9219 8.30078V15H60.9629V8.28125C60.9629 7.84505 60.8978 7.50977 60.7676 7.27539C60.6439 7.03451 60.4616 6.86849 60.2207 6.77734C59.9798 6.67969 59.6836 6.63086 59.332 6.63086C58.974 6.63086 58.6615 6.69922 58.3945 6.83594C58.1341 6.96615 57.916 7.15495 57.7402 7.40234C57.571 7.64974 57.444 7.94271 57.3594 8.28125C57.2747 8.61328 57.2324 8.97461 57.2324 9.36523L56.4316 9.4043ZM71.4754 6.58203H65.2352V4.43359H71.4754V6.58203ZM69.6883 1.82617V11.6992C69.6883 11.9857 69.7241 12.207 69.7957 12.3633C69.8738 12.5195 69.9943 12.627 70.157 12.6855C70.3198 12.7441 70.5216 12.7734 70.7625 12.7734C70.9383 12.7734 71.0945 12.7669 71.2312 12.7539C71.368 12.7409 71.4852 12.7246 71.5828 12.7051L71.573 14.9316C71.3322 15.0163 71.0685 15.0814 70.782 15.127C70.5021 15.1725 70.1863 15.1953 69.8348 15.1953C69.2033 15.1953 68.6531 15.0911 68.1844 14.8828C67.7221 14.668 67.3641 14.3294 67.1102 13.8672C66.8628 13.3984 66.7391 12.7865 66.7391 12.0312V1.82617H69.6883ZM89.3559 8.95508C89.3559 10.1921 89.1378 11.2793 88.7016 12.2168C88.2654 13.1543 87.6469 13.8867 86.8461 14.4141C86.0453 14.9349 85.098 15.1953 84.0043 15.1953C82.9171 15.1953 81.9698 14.9349 81.1625 14.4141C80.3617 13.8867 79.74 13.1543 79.2973 12.2168C78.8546 11.2793 78.6332 10.1921 78.6332 8.95508V6.82617C78.6332 5.58919 78.8513 4.50195 79.2875 3.56445C79.7302 2.62695 80.352 1.89779 81.1527 1.37695C81.9535 0.849609 82.8975 0.585938 83.9848 0.585938C85.0785 0.585938 86.0258 0.849609 86.8266 1.37695C87.6339 1.89779 88.2556 2.62695 88.6918 3.56445C89.1345 4.50195 89.3559 5.58919 89.3559 6.82617V8.95508ZM88.8285 6.80664C88.8285 5.69336 88.6365 4.71029 88.2523 3.85742C87.8747 2.99805 87.3246 2.32747 86.602 1.8457C85.8793 1.35742 85.0069 1.11328 83.9848 1.11328C82.9691 1.11328 82.1033 1.35742 81.3871 1.8457C80.671 2.32747 80.1208 2.99805 79.7367 3.85742C79.3591 4.71029 79.1703 5.69336 79.1703 6.80664V8.95508C79.1703 10.0684 79.3624 11.0547 79.7465 11.9141C80.1306 12.7734 80.6807 13.4473 81.3969 13.9355C82.1195 14.4238 82.9887 14.668 84.0043 14.668C85.0264 14.668 85.8956 14.4238 86.6117 13.9355C87.3344 13.4473 87.8845 12.7734 88.2621 11.9141C88.6397 11.0547 88.8285 10.0684 88.8285 8.95508V6.80664ZM103.052 15H102.525L93.3449 1.67969V15H92.8078V0.78125H93.3449L102.525 14.0723V0.78125H103.052V15ZM114.712 15H111.636V0.78125H114.712V15ZM120.288 9.24805H113.891V6.77734H120.288V9.24805ZM120.962 3.26172H113.891V0.78125H120.962V3.26172ZM121.621 9.61914C121.621 8.59049 121.816 7.67253 122.207 6.86523C122.597 6.05143 123.167 5.41016 123.916 4.94141C124.664 4.47266 125.573 4.23828 126.64 4.23828C127.721 4.23828 128.636 4.47266 129.384 4.94141C130.14 5.41016 130.709 6.05143 131.093 6.86523C131.484 7.67253 131.679 8.59049 131.679 9.61914V9.82422C131.679 10.8464 131.484 11.7643 131.093 12.5781C130.709 13.3919 130.143 14.0332 129.394 14.502C128.645 14.9642 127.734 15.1953 126.66 15.1953C125.586 15.1953 124.671 14.9642 123.916 14.502C123.167 14.0332 122.597 13.3919 122.207 12.5781C121.816 11.7643 121.621 10.8464 121.621 9.82422V9.61914ZM124.58 9.82422C124.58 10.3776 124.645 10.8822 124.775 11.3379C124.912 11.7936 125.13 12.1549 125.429 12.4219C125.735 12.6888 126.145 12.8223 126.66 12.8223C127.168 12.8223 127.571 12.6888 127.871 12.4219C128.177 12.1549 128.395 11.7936 128.525 11.3379C128.662 10.8822 128.73 10.3776 128.73 9.82422V9.61914C128.73 9.07878 128.662 8.58073 128.525 8.125C128.395 7.66276 128.177 7.29492 127.871 7.02148C127.571 6.74805 127.161 6.61133 126.64 6.61133C126.132 6.61133 125.726 6.74805 125.42 7.02148C125.12 7.29492 124.905 7.66276 124.775 8.125C124.645 8.58073 124.58 9.07878 124.58 9.61914V9.82422ZM136.518 15H133.569V4.43359H136.342L136.518 6.86523V15ZM139.604 7.20703C139.461 7.1875 139.291 7.17122 139.096 7.1582C138.901 7.13867 138.725 7.12891 138.569 7.12891C138.054 7.12891 137.631 7.21029 137.299 7.37305C136.967 7.5293 136.72 7.76367 136.557 8.07617C136.394 8.38867 136.306 8.77604 136.293 9.23828L135.717 8.98438C135.717 8.06641 135.834 7.24935 136.069 6.5332C136.303 5.81706 136.648 5.25716 137.104 4.85352C137.56 4.44336 138.113 4.23828 138.764 4.23828C138.914 4.23828 139.07 4.24805 139.233 4.26758C139.402 4.28711 139.539 4.31966 139.643 4.36523L139.604 7.20703ZM147.333 4.43359H150.282V15H147.519L147.333 12.4512V4.43359ZM148.515 10.2441C148.515 11.1947 148.368 12.0443 148.075 12.793C147.789 13.5352 147.353 14.1211 146.767 14.5508C146.187 14.9805 145.455 15.1953 144.57 15.1953C143.528 15.1953 142.682 14.8926 142.03 14.2871C141.386 13.6751 141.064 12.6693 141.064 11.2695V4.43359H144.013V11.2891C144.013 11.6471 144.071 11.9401 144.189 12.168C144.312 12.3893 144.482 12.5521 144.696 12.6562C144.918 12.7539 145.168 12.8027 145.448 12.8027C146.015 12.8027 146.458 12.6921 146.777 12.4707C147.102 12.2493 147.33 11.9466 147.46 11.5625C147.597 11.1784 147.665 10.7454 147.665 10.2637L148.515 10.2441ZM146.132 0H149.335L146.611 3.03711H144.218L146.132 0ZM155.512 15H152.562V4.43359H155.336L155.512 6.64062V15ZM154.291 9.4043C154.291 8.40169 154.447 7.51302 154.76 6.73828C155.072 5.96354 155.535 5.35482 156.146 4.91211C156.765 4.46289 157.53 4.23828 158.441 4.23828C159.379 4.23828 160.144 4.52799 160.736 5.10742C161.329 5.68034 161.625 6.6276 161.625 7.94922V15H158.676V8.31055C158.676 7.86133 158.614 7.51628 158.49 7.27539C158.373 7.02799 158.201 6.85872 157.973 6.76758C157.745 6.67643 157.471 6.63086 157.152 6.63086C156.807 6.63086 156.505 6.69922 156.244 6.83594C155.984 6.96615 155.769 7.15495 155.6 7.40234C155.43 7.64974 155.303 7.94271 155.219 8.28125C155.141 8.61328 155.102 8.97461 155.102 9.36523L154.291 9.4043ZM160.307 9.28711C160.3 8.33008 160.447 7.4707 160.746 6.70898C161.052 5.94727 161.508 5.34505 162.113 4.90234C162.719 4.45964 163.471 4.23828 164.369 4.23828C165.046 4.23828 165.639 4.36849 166.146 4.62891C166.654 4.88932 167.048 5.31576 167.328 5.9082C167.608 6.50065 167.748 7.29492 167.748 8.29102V15H164.779V8.28125C164.779 7.82552 164.717 7.48047 164.594 7.24609C164.477 7.01172 164.304 6.85221 164.076 6.76758C163.855 6.67643 163.588 6.63086 163.275 6.63086C162.95 6.63086 162.667 6.69271 162.426 6.81641C162.191 6.9401 161.993 7.11914 161.83 7.35352C161.674 7.58138 161.553 7.85156 161.469 8.16406C161.391 8.47005 161.352 8.80534 161.352 9.16992L160.307 9.28711Z" fill="white"/>
</svg>
