<svg width="20" height="20" viewBox="0 0 20 20" fill="none" xmlns="http://www.w3.org/2000/svg">
<g clip-path="url(#clip0_421_1020)">
<path d="M14.9478 6.84225C14.9478 5.54408 14.4321 4.29909 13.5141 3.38114C12.5962 2.4632 11.3512 1.94751 10.053 1.94751C8.75488 1.94751 7.50988 2.4632 6.59194 3.38114C5.674 4.29909 5.15831 5.54408 5.15831 6.84225C5.15831 12.5528 2.71094 14.1844 2.71094 14.1844H17.3951C17.3951 14.1844 14.9478 12.5528 14.9478 6.84225Z" fill="#63B1BC"/>
<path d="M11.4652 17.4475C11.3218 17.6948 11.1159 17.9 10.8682 18.0427C10.6205 18.1853 10.3397 18.2604 10.0539 18.2604C9.76806 18.2604 9.48724 18.1853 9.23955 18.0427C8.99186 17.9 8.786 17.6948 8.64258 17.4475" stroke="#63B1BC" stroke-width="1.63158" stroke-linecap="round" stroke-linejoin="round"/>
</g>
<defs>
<clipPath id="clip0_421_1020">
<rect width="19.5789" height="19.5789" fill="white" transform="translate(0.263672 0.315796)"/>
</clipPath>
</defs>
</svg>
