<svg width="23" height="26" viewBox="0 0 23 26" fill="none" xmlns="http://www.w3.org/2000/svg">
<path d="M14.7639 20.25H14.7629H1.23786C1.0726 20.25 0.940018 20.1913 0.856596 20.1182C0.774618 20.0465 0.75 19.9734 0.75 19.9165C0.75 17.4308 3.08881 15.2506 6.18929 15.2506H9.81071C12.9115 15.2506 15.25 17.4308 15.25 19.9165C15.25 19.9752 15.2248 20.0483 15.1437 20.1193C15.061 20.1917 14.9291 20.2502 14.7639 20.25ZM11.8214 9.00023C11.8214 10.7043 10.2079 12.2505 8 12.2505C5.79209 12.2505 4.17857 10.7043 4.17857 9.00023C4.17857 7.29612 5.79209 5.75 8 5.75C10.2079 5.75 11.8214 7.29612 11.8214 9.00023Z" stroke="#1C2438" stroke-width="1.5"/>
</svg>
