<svg width="24" height="25" viewBox="0 0 24 25" fill="none" xmlns="http://www.w3.org/2000/svg">
<path fill-rule="evenodd" clip-rule="evenodd" d="M16.904 19.7084C15.1671 20.8718 13.0637 21.5529 10.7971 21.5529C4.83397 21.5529 0 16.8401 0 11.0264C0 5.21281 4.83397 0.5 10.7971 0.5C16.7601 0.5 21.5941 5.21281 21.5941 11.0264C21.5941 13.545 20.687 15.8567 19.174 17.6683L23.5482 21.9329C24.1506 22.5201 24.1506 23.4722 23.5482 24.0597C22.9459 24.6468 21.9692 24.6468 21.367 24.0597L16.904 19.7084ZM18.8177 11.0264C18.8177 15.3451 15.2267 18.8461 10.7971 18.8461C6.36737 18.8461 2.77639 15.3451 2.77639 11.0264C2.77639 6.70778 6.36737 3.2068 10.7971 3.2068C15.2267 3.2068 18.8177 6.70778 18.8177 11.0264Z" fill="white"/>
</svg>
