<svg width="24" height="23" viewBox="0 0 24 23" fill="none" xmlns="http://www.w3.org/2000/svg">
<path d="M22.1955 18.1391C21.6103 16.8966 20.766 15.7704 19.7097 14.8234C18.6566 13.8736 17.4118 13.1196 16.0442 12.603C16.0319 12.5975 16.0197 12.5948 16.0074 12.5893C17.9003 11.318 19.1217 9.26203 19.1045 6.95367C19.0761 3.12966 15.6638 0.0586233 11.4807 0.0922581C7.29759 0.125893 3.93143 3.25143 3.9599 7.07544C3.97709 9.38381 5.22892 11.4198 7.14053 12.6634C7.12836 12.6691 7.11617 12.672 7.104 12.6777C5.74002 13.2162 4.51821 13.9825 3.47199 14.9567C2.43092 15.9214 1.60364 17.0608 1.03582 18.3121C0.477969 19.5371 0.181947 20.8481 0.163781 22.174C0.163187 22.2038 0.169124 22.2334 0.181241 22.2611C0.193357 22.2887 0.211409 22.3138 0.234332 22.335C0.257255 22.3561 0.284585 22.3729 0.314712 22.3842C0.34484 22.3955 0.377155 22.4012 0.409753 22.401L2.24176 22.3862C2.37611 22.3851 2.48225 22.2866 2.48441 22.1665C2.52944 20.0112 3.46095 17.9855 5.1228 16.4425C6.84227 14.8459 9.13496 13.9565 11.5837 13.9369C14.0325 13.9172 16.3382 14.7696 18.0812 16.3383C19.7659 17.8544 20.7274 19.8649 20.8045 22.0192C20.8085 22.142 20.9161 22.2361 21.0504 22.235L22.8824 22.2203C22.915 22.22 22.9472 22.2138 22.9772 22.202C23.0072 22.1902 23.0342 22.173 23.0568 22.1515C23.0794 22.13 23.0971 22.1045 23.1088 22.0767C23.1205 22.0489 23.126 22.0192 23.125 21.9894C23.0845 20.6554 22.7726 19.3599 22.1955 18.1391ZM11.568 11.8155C10.1665 11.8268 8.8437 11.3377 7.84461 10.4386C6.84551 9.53939 6.28999 8.33797 6.28045 7.05678C6.27091 5.7756 6.80848 4.56539 7.79407 3.65025C8.77965 2.73512 10.095 2.22488 11.4965 2.21361C12.898 2.20234 14.2207 2.69137 15.2198 3.59054C16.2189 4.48972 16.7744 5.69115 16.784 6.97233C16.7935 8.25351 16.2559 9.46373 15.2704 10.3789C14.2848 11.294 12.9694 11.8042 11.568 11.8155Z" fill="#3F3D56"/>
</svg>
