<svg width="21" height="17" viewBox="0 0 21 17" fill="none" xmlns="http://www.w3.org/2000/svg">
<path d="M19.2143 8.08336C19.2178 9.18325 18.9057 10.2683 18.3036 11.25C17.5896 12.4265 16.492 13.416 15.1337 14.1078C13.7754 14.7995 12.2101 15.1662 10.6131 15.1667C9.27751 15.1696 7.96 14.9126 6.76786 14.4167L1 16L2.92262 11.25C2.32047 10.2683 2.00842 9.18325 2.0119 8.08336C2.01252 6.76815 2.45776 5.47907 3.29775 4.36048C4.13774 3.2419 5.3393 2.338 6.76786 1.75002C7.96 1.25413 9.27751 0.997156 10.6131 1.00002H11.119C13.2282 1.09585 15.2203 1.82899 16.714 3.05907C18.2077 4.28915 19.0979 5.92973 19.2143 7.66669V8.08336Z" fill="#1C2438" stroke="#1C2438" stroke-width="1.66667" stroke-linecap="round" stroke-linejoin="round"/>
</svg>
