<svg width="23" height="23" viewBox="0 0 23 23" fill="none" xmlns="http://www.w3.org/2000/svg">
<path d="M17.889 19.1667H3.83344V5.11115H12.2796L13.5573 3.83337H3.83344C3.49455 3.83337 3.16955 3.968 2.92992 4.20763C2.69029 4.44726 2.55566 4.77226 2.55566 5.11115V19.1667C2.55566 19.5056 2.69029 19.8306 2.92992 20.0702C3.16955 20.3099 3.49455 20.4445 3.83344 20.4445H17.889C18.2279 20.4445 18.5529 20.3099 18.7925 20.0702C19.0322 19.8306 19.1668 19.5056 19.1668 19.1667V9.58337L17.889 10.8612V19.1667Z" fill="#1C2438"/>
<path d="M21.4218 3.73108L19.2688 1.57803C19.1732 1.48221 19.0597 1.40619 18.9347 1.35432C18.8097 1.30246 18.6757 1.27576 18.5404 1.27576C18.4051 1.27576 18.2711 1.30246 18.1461 1.35432C18.0212 1.40619 17.9077 1.48221 17.8121 1.57803L9.05293 10.3883L8.34377 13.4614C8.31355 13.6103 8.31673 13.7641 8.35307 13.9117C8.3894 14.0593 8.458 14.197 8.55391 14.3149C8.64983 14.4328 8.77069 14.528 8.90779 14.5936C9.04489 14.6593 9.19483 14.6937 9.34682 14.6944C9.42538 14.7031 9.50465 14.7031 9.58321 14.6944L12.6818 14.0108L21.4218 5.18775C21.5176 5.0922 21.5937 4.97868 21.6455 4.8537C21.6974 4.72872 21.7241 4.59473 21.7241 4.45942C21.7241 4.3241 21.6974 4.19011 21.6455 4.06513C21.5937 3.94015 21.5176 3.82663 21.4218 3.73108V3.73108ZM12.0174 12.8289L9.67904 13.3464L10.2221 11.0272L16.8154 4.38914L18.6171 6.1908L12.0174 12.8289ZM19.339 5.46886L17.5374 3.66719L18.5277 2.65775L20.3421 4.47219L19.339 5.46886Z" fill="#1C2438"/>
</svg>
