<svg width="20" height="17" viewBox="0 0 20 17" fill="none" xmlns="http://www.w3.org/2000/svg">
<path d="M19.5861 8.36072L10.499 0.186175C10.4336 0.127158 10.3559 0.0803364 10.2703 0.0483901C10.1847 0.0164437 10.093 0 10.0004 0C9.90779 0 9.81608 0.0164437 9.73052 0.0483901C9.64497 0.0803364 9.56726 0.127158 9.50183 0.186175L0.414753 8.36072C0.150017 8.59905 0 8.92277 0 9.2604C0 9.96147 0.633161 10.5315 1.41193 10.5315H2.36939V16.3645C2.36939 16.716 2.68487 17 3.07535 17H8.58849V12.5513H11.0594V17H16.9255C17.316 17 17.6314 16.716 17.6314 16.3645V10.5315H18.5889C18.9639 10.5315 19.3235 10.3984 19.5883 10.1581C20.1376 9.66158 20.1376 8.85723 19.5861 8.36072V8.36072Z" fill="#1C2438"/>
</svg>
