<svg width="26" height="26" viewBox="0 0 26 26" fill="none" xmlns="http://www.w3.org/2000/svg">
<path d="M17.8125 9.625C18.8135 9.625 19.625 8.81352 19.625 7.8125C19.625 6.81148 18.8135 6 17.8125 6C16.8115 6 16 6.81148 16 7.8125C16 8.81352 16.8115 9.625 17.8125 9.625Z" fill="#3F3D56"/>
<path d="M17.2187 2.19359e-07C15.9451 -0.000291863 14.6891 0.297763 13.5514 0.87028C12.4137 1.4428 11.4259 2.27386 10.6672 3.29686C9.90845 4.31987 9.39993 5.50637 9.18233 6.76129C8.96473 8.01621 9.04412 9.30466 9.41412 10.5234L0 19.9375V25.375H5.4375L14.8516 15.9609C15.9735 16.3014 17.1555 16.3961 18.3173 16.2384C19.479 16.0808 20.5931 15.6746 21.5837 15.0474C22.5742 14.4203 23.4179 13.5869 24.0573 12.6042C24.6967 11.6215 25.1166 10.5125 25.2886 9.3528C25.4606 8.19309 25.3806 7.00993 25.054 5.88396C24.7273 4.75798 24.1618 3.71565 23.3959 2.82801C22.63 1.94036 21.6818 1.22826 20.6158 0.740235C19.5498 0.252208 18.3911 -0.00027167 17.2187 2.19359e-07ZM17.2187 14.5C16.5948 14.4997 15.9743 14.4074 15.3772 14.2263L14.3378 13.9109L13.5702 14.6785L10.6874 17.5613L9.43769 16.3125L8.15625 17.5939L9.40597 18.8437L7.96866 20.281L6.71894 19.0312L5.4375 20.3127L6.68722 21.5624L4.68712 23.5625H1.8125V20.6879L10.6956 11.8048L11.4641 11.0372L11.1487 9.99775C10.7613 8.72084 10.7865 7.35429 11.2206 6.09251C11.6547 4.83072 12.4756 3.73794 13.5666 2.96962C14.6576 2.2013 15.963 1.79656 17.2973 1.81298C18.6316 1.8294 19.9267 2.26613 20.9984 3.06106C22.0702 3.85598 22.864 4.96863 23.2669 6.24071C23.6698 7.5128 23.6614 8.87954 23.2427 10.1465C22.8241 11.4135 22.0166 12.5163 20.9351 13.2979C19.8535 14.0795 18.5531 14.5001 17.2187 14.5Z" fill="#3F3D56"/>
</svg>
