<svg width="74" height="74" viewBox="0 0 74 74" fill="none" xmlns="http://www.w3.org/2000/svg">
<path d="M73 37C73 56.8823 56.8823 73 37 73C17.1177 73 1 56.8823 1 37C1 29.118 3.53193 21.8302 7.82704 15.9019C14.3699 6.87101 24.9993 1 37 1C56.8823 1 73 17.1177 73 37Z" stroke="white" stroke-width="2"/>
<path d="M28.7513 31.5107C30.9779 31.5107 32.7829 29.7057 32.7829 27.4791C32.7829 25.2525 30.9779 23.4475 28.7513 23.4475C26.5247 23.4475 24.7197 25.2525 24.7197 27.4791C24.7197 29.7057 26.5247 31.5107 28.7513 31.5107Z" stroke="white" stroke-width="2" stroke-linecap="round" stroke-linejoin="round"/>
<path d="M44.9002 31.5107C47.1268 31.5107 48.9318 29.7057 48.9318 27.4791C48.9318 25.2525 47.1268 23.4475 44.9002 23.4475C42.6737 23.4475 40.8687 25.2525 40.8687 27.4791C40.8687 29.7057 42.6737 31.5107 44.9002 31.5107Z" stroke="white" stroke-width="2" stroke-linecap="round" stroke-linejoin="round"/>
<path d="M51.6505 19.9922H22.0241C20.2428 19.9922 18.7988 21.4362 18.7988 23.2175V31.7299C18.7988 33.5111 20.2428 34.9551 22.0241 34.9551H51.6505C53.4317 34.9551 54.8757 33.5111 54.8757 31.7299V23.2175C54.8757 21.4362 53.4317 19.9922 51.6505 19.9922Z" stroke="white" stroke-width="2" stroke-linecap="round" stroke-linejoin="round"/>
<path d="M15.5161 16.7095L19.732 20.9369L15.5161 16.7095ZM58.1357 16.7325L53.9198 20.9599L58.1357 16.7325ZM53.9693 58.3488L35.6625 53.0444L22.0231 52.852C21.5993 52.8529 21.1795 52.7701 20.7878 52.6084C20.396 52.4466 20.0401 52.2091 19.7404 51.9094C19.4408 51.6097 19.2032 51.2538 19.0415 50.8621C18.8797 50.4704 18.7969 50.0506 18.7978 49.6268V41.6362C18.7969 41.2124 18.8797 40.7926 19.0415 40.4008C19.2032 40.0091 19.4408 39.6532 19.7404 39.3535C20.0401 39.0539 20.396 38.8163 20.7878 38.6546C21.1795 38.4928 21.5993 38.41 22.0231 38.4109H51.6495C52.0733 38.41 52.4931 38.4928 52.8848 38.6546C53.2765 38.8163 53.6324 39.0539 53.9321 39.3535C54.2318 39.6532 54.4693 40.0091 54.6311 40.4008C54.7928 40.7926 54.8756 41.2124 54.8747 41.6362V49.8203C54.8756 50.2441 54.7928 50.6639 54.6311 51.0556C54.4693 51.4473 54.2318 51.8032 53.9321 52.1029C53.6324 52.4026 53.2765 52.6401 52.8848 52.8019C52.4931 52.9637 52.0733 53.0465 51.6495 53.0455H49.6855L53.9693 58.3488Z" stroke="white" stroke-width="2" stroke-linecap="round" stroke-linejoin="round"/>
</svg>
