<svg width="57" height="57" viewBox="0 0 57 57" fill="none" xmlns="http://www.w3.org/2000/svg">
<path d="M47.6467 44.4066C50.2048 41.3287 51.9839 37.6801 52.8337 33.7693C53.6834 29.8584 53.5787 25.8004 52.5285 21.9386C51.4782 18.0768 49.5133 14.5247 46.7999 11.5829C44.0866 8.64106 40.7046 6.39602 36.94 5.0377C33.1755 3.67937 29.1392 3.24771 25.1726 3.77923C21.2059 4.31076 17.4256 5.78983 14.1515 8.09133C10.8774 10.3928 8.20577 13.449 6.36261 17.0014C4.51945 20.5538 3.559 24.4979 3.56251 28.5C3.56385 34.3179 5.61406 39.9495 9.35335 44.4066L9.31773 44.4368C9.44242 44.5865 9.58492 44.7147 9.71317 44.8626C9.87348 45.046 10.0463 45.2188 10.2119 45.3969C10.7107 45.9384 11.2237 46.4586 11.7616 46.9466C11.9255 47.0962 12.0947 47.2352 12.2604 47.3777C12.8304 47.8693 13.4164 48.336 14.0238 48.7706C14.1022 48.8241 14.1734 48.8935 14.2518 48.9487V48.9274C18.4237 51.8632 23.4005 53.4388 28.5018 53.4388C33.6031 53.4388 38.5799 51.8632 42.7518 48.9274V48.9487C42.8302 48.8935 42.8996 48.8241 42.9798 48.7706C43.5854 48.3342 44.1732 47.8693 44.7432 47.3777C44.9089 47.2352 45.0781 47.0945 45.242 46.9466C45.7799 46.4568 46.2929 45.9384 46.7917 45.3969C46.9573 45.2188 47.1283 45.046 47.2904 44.8626C47.4169 44.7147 47.5612 44.5865 47.6859 44.4351L47.6467 44.4066ZM28.5 14.25C30.0854 14.25 31.6351 14.7201 32.9533 15.6009C34.2714 16.4816 35.2988 17.7335 35.9055 19.1982C36.5122 20.6628 36.6709 22.2745 36.3616 23.8294C36.0523 25.3843 35.2889 26.8125 34.1679 27.9335C33.0469 29.0545 31.6187 29.8179 30.0638 30.1272C28.5089 30.4365 26.8972 30.2778 25.4326 29.6711C23.9679 29.0644 22.716 28.037 21.8353 26.7189C20.9545 25.4007 20.4844 23.851 20.4844 22.2656C20.4844 20.1397 21.3289 18.1009 22.8321 16.5977C24.3353 15.0945 26.3741 14.25 28.5 14.25V14.25ZM14.2625 44.4066C14.2934 42.0677 15.2439 39.8351 16.9083 38.1917C18.5727 36.5482 20.8172 35.6262 23.1563 35.625H33.8438C36.1828 35.6262 38.4273 36.5482 40.0917 38.1917C41.7562 39.8351 42.7066 42.0677 42.7375 44.4066C38.831 47.9269 33.7587 49.8751 28.5 49.8751C23.2413 49.8751 18.169 47.9269 14.2625 44.4066V44.4066Z" fill="white"/>
</svg>
