<svg width="20" height="13" viewBox="0 0 20 13" fill="none" xmlns="http://www.w3.org/2000/svg">
<path d="M1 7.40298C4.6 -1.13433 15.4 -1.13433 19 7.40298" stroke="#1C2438" stroke-linecap="round" stroke-linejoin="round"/>
<path d="M9.99961 11.9999C9.36309 11.9999 8.75264 11.7232 8.30255 11.2306C7.85247 10.7379 7.59961 10.0698 7.59961 9.37308C7.59961 8.67639 7.85247 8.00824 8.30255 7.51561C8.75264 7.02297 9.36309 6.74622 9.99961 6.74622C10.6361 6.74622 11.2466 7.02297 11.6967 7.51561C12.1468 8.00824 12.3996 8.67639 12.3996 9.37308C12.3996 10.0698 12.1468 10.7379 11.6967 11.2306C11.2466 11.7232 10.6361 11.9999 9.99961 11.9999Z" stroke="#1C2438" stroke-linecap="round" stroke-linejoin="round"/>
</svg>
