<svg width="52" height="52" viewBox="0 0 52 52" fill="none" xmlns="http://www.w3.org/2000/svg">
<g filter="url(#filter0_d_1251_20)">
<circle cx="26" cy="22" r="22" fill="white"/>
<path d="M35.2143 22.0834C35.2178 23.1832 34.9057 24.2683 34.3036 25.25C33.5896 26.4265 32.492 27.416 31.1337 28.1078C29.7754 28.7995 28.2101 29.1662 26.6131 29.1667C25.2775 29.1696 23.96 28.9126 22.7679 28.4167L17 30L18.9226 25.25C18.3205 24.2683 18.0084 23.1832 18.0119 22.0834C18.0125 20.7682 18.4578 19.4791 19.2978 18.3605C20.1377 17.2419 21.3393 16.338 22.7679 15.75C23.96 15.2541 25.2775 14.9972 26.6131 15H27.119C29.2282 15.0959 31.2203 15.829 32.714 17.0591C34.2077 18.2892 35.0979 19.9297 35.2143 21.6667V22.0834Z" fill="white" stroke="#1C2438" stroke-opacity="0.65" stroke-width="1.66667" stroke-linecap="round" stroke-linejoin="round"/>
</g>
<defs>
<filter id="filter0_d_1251_20" x="0" y="0" width="52" height="52" filterUnits="userSpaceOnUse" color-interpolation-filters="sRGB">
<feFlood flood-opacity="0" result="BackgroundImageFix"/>
<feColorMatrix in="SourceAlpha" type="matrix" values="0 0 0 0 0 0 0 0 0 0 0 0 0 0 0 0 0 0 127 0" result="hardAlpha"/>
<feOffset dy="4"/>
<feGaussianBlur stdDeviation="2"/>
<feComposite in2="hardAlpha" operator="out"/>
<feColorMatrix type="matrix" values="0 0 0 0 0 0 0 0 0 0 0 0 0 0 0 0 0 0 0.1 0"/>
<feBlend mode="normal" in2="BackgroundImageFix" result="effect1_dropShadow_1251_20"/>
<feBlend mode="normal" in="SourceGraphic" in2="effect1_dropShadow_1251_20" result="shape"/>
</filter>
</defs>
</svg>
