<svg width="20" height="20" viewBox="0 0 20 20" fill="none" xmlns="http://www.w3.org/2000/svg">
<path d="M15.889 18.1667H1.83344V4.11115H10.2796L11.5573 2.83337H1.83344C1.49455 2.83337 1.16955 2.968 0.929916 3.20763C0.690287 3.44726 0.555664 3.77226 0.555664 4.11115V18.1667C0.555664 18.5056 0.690287 18.8306 0.929916 19.0702C1.16955 19.3099 1.49455 19.4445 1.83344 19.4445H15.889C16.2279 19.4445 16.5529 19.3099 16.7925 19.0702C17.0322 18.8306 17.1668 18.5056 17.1668 18.1667V8.58337L15.889 9.86115V18.1667Z" fill="#1C2438"/>
<path d="M19.4218 2.73108L17.2688 0.578027C17.1732 0.482213 17.0597 0.406194 16.9347 0.354325C16.8097 0.302456 16.6757 0.275757 16.5404 0.275757C16.4051 0.275757 16.2711 0.302456 16.1461 0.354325C16.0212 0.406194 15.9076 0.482213 15.8121 0.578027L7.05293 9.3883L6.34377 12.4614C6.31355 12.6103 6.31673 12.7641 6.35307 12.9117C6.3894 13.0593 6.458 13.197 6.55391 13.3149C6.64983 13.4328 6.77069 13.528 6.90779 13.5936C7.04489 13.6593 7.19483 13.6937 7.34682 13.6944C7.42538 13.7031 7.50465 13.7031 7.58321 13.6944L10.6818 13.0108L19.4218 4.18775C19.5176 4.0922 19.5937 3.97868 19.6455 3.8537C19.6974 3.72872 19.7241 3.59473 19.7241 3.45942C19.7241 3.3241 19.6974 3.19011 19.6455 3.06513C19.5937 2.94015 19.5176 2.82663 19.4218 2.73108ZM10.0174 11.8289L7.67904 12.3464L8.2221 10.0272L14.8154 3.38914L16.6171 5.1908L10.0174 11.8289ZM17.339 4.46886L15.5374 2.66719L16.5277 1.65775L18.3421 3.47219L17.339 4.46886Z" fill="#1C2438"/>
</svg>
