<svg width="17" height="16" viewBox="0 0 17 16" fill="none" xmlns="http://www.w3.org/2000/svg">
<path d="M15.3 16H1.7C0.761116 16 0 15.2389 0 14.3V2.40001C0 1.46113 0.761116 0.700012 1.7 0.700012H6.8C7.02542 0.700012 7.24158 0.789645 7.40095 0.949062L8.8519 2.40001H15.3C16.2389 2.40001 17 3.16113 17 4.10001V14.3C17 15.2389 16.2389 16 15.3 16Z" fill="#1C2438"/>
<path d="M15.3 16H1.7C0.761116 16 0 15.2389 0 14.3V2.40001C0 1.46113 0.761116 0.700012 1.7 0.700012H6.8C7.02542 0.700012 7.24158 0.789645 7.40095 0.949062L8.8519 2.40001H15.3C16.2389 2.40001 17 3.16113 17 4.10001V14.3C17 15.2389 16.2389 16 15.3 16Z" fill="#1C2438" fill-opacity="0.2"/>
</svg>
