<svg width="20" height="18" viewBox="0 0 20 18" fill="none" xmlns="http://www.w3.org/2000/svg">
<path fill-rule="evenodd" clip-rule="evenodd" d="M2 18H18C19.1045 18 20 17.1046 20 16V4C20 2.89545 19.1045 2 18 2H10.4141L8.70703 0.29303C8.51953 0.105469 8.26514 0 8 0H2C0.895508 0 0 0.895447 0 2V16C0 17.1046 0.895508 18 2 18ZM14 9H6V11H14V9Z" fill="#1C2438"/>
<path fill-rule="evenodd" clip-rule="evenodd" d="M2 18H18C19.1045 18 20 17.1046 20 16V4C20 2.89545 19.1045 2 18 2H10.4141L8.70703 0.29303C8.51953 0.105469 8.26514 0 8 0H2C0.895508 0 0 0.895447 0 2V16C0 17.1046 0.895508 18 2 18ZM14 9H6V11H14V9Z" fill="#1C2438" fill-opacity="0.2"/>
</svg>
