<svg width="36" height="36" viewBox="0 0 36 36" fill="none" xmlns="http://www.w3.org/2000/svg">
<path d="M33.1201 12.81C32.105 13.2787 30.9977 13.5138 29.8798 13.4982C28.7618 13.4825 27.6615 13.2164 26.66 12.7195C25.6584 12.2225 24.7809 11.5073 24.0922 10.6266C23.4035 9.74579 22.9209 8.72182 22.6801 7.62998C21.2123 6.95423 19.616 6.60291 18.0001 6.59998C15.205 6.5874 12.5028 7.6031 10.4079 9.4537C8.3131 11.3043 6.9719 13.8606 6.63965 16.636C6.30739 19.4113 7.00728 22.212 8.60609 24.5048C10.2049 26.7976 12.591 28.4224 15.3101 29.07L15.0001 30.63C11.9178 29.8787 9.21655 28.0262 7.40533 25.4214C5.59411 22.8167 4.79792 19.6395 5.16676 16.4884C5.53559 13.3373 7.04399 10.4299 9.40778 8.31383C11.7716 6.19776 14.8276 5.01913 18.0001 4.99997C19.5405 4.99992 21.0683 5.2777 22.5101 5.81998C22.5341 4.80388 22.7655 3.80342 23.1901 2.87998C19.7564 1.69268 16.0216 1.70476 12.5956 2.91422C9.16964 4.12368 6.255 6.45905 4.32771 9.53892C2.40043 12.6188 1.57439 16.2612 1.98451 19.8711C2.39463 23.4811 4.01668 26.8453 6.58573 29.4144C9.15478 31.9834 12.519 33.6055 16.129 34.0156C19.7389 34.4257 23.3813 33.5997 26.4612 31.6724C29.541 29.7451 31.8764 26.8305 33.0859 23.4045C34.2953 19.9785 34.3074 16.2437 33.1201 12.81V12.81ZM24.2001 23.18C24.1275 23.2899 24.0338 23.3844 23.9245 23.458C23.8152 23.5316 23.6925 23.5829 23.5633 23.6089C23.4342 23.6349 23.3011 23.6352 23.1719 23.6096C23.0426 23.5841 22.9197 23.5332 22.8101 23.46L16.9101 19.46V10.75C16.9101 10.4848 17.0155 10.2304 17.203 10.0429C17.3905 9.85533 17.6449 9.74998 17.9101 9.74998C18.1753 9.74998 18.4297 9.85533 18.6172 10.0429C18.8048 10.2304 18.9101 10.4848 18.9101 10.75V18.4L23.9101 21.79C24.0208 21.8618 24.1162 21.9549 24.1908 22.0638C24.2654 22.1727 24.3177 22.2953 24.3446 22.4246C24.3716 22.5538 24.3727 22.6871 24.3479 22.8167C24.3231 22.9464 24.2729 23.0698 24.2001 23.18V23.18Z" fill="white"/>
<path d="M30 11C32.7614 11 35 8.76142 35 6C35 3.23858 32.7614 1 30 1C27.2386 1 25 3.23858 25 6C25 8.76142 27.2386 11 30 11Z" fill="#EBCB23"/>
</svg>
