<svg width="18" height="17" viewBox="0 0 18 17" fill="none" xmlns="http://www.w3.org/2000/svg">
<path d="M1.36712 0.0921444L17.4568 7.65364C17.6194 7.72994 17.7567 7.84993 17.8529 7.99972C17.949 8.1495 18 8.32297 18 8.50006C18 8.67714 17.949 8.85061 17.8529 9.0004C17.7567 9.15018 17.6194 9.27017 17.4568 9.34648L1.36712 16.908C1.20218 16.9856 1.01801 17.015 0.836533 16.9928C0.655056 16.9705 0.483906 16.8975 0.343449 16.7824C0.202992 16.6673 0.0991392 16.515 0.0442481 16.3436C-0.010643 16.1721 -0.0142619 15.9888 0.0338221 15.8154L1.64355 10.0166C1.66326 9.94549 1.70381 9.88169 1.76017 9.83312C1.81652 9.78455 1.88618 9.75335 1.96046 9.74342L9.75711 8.70266C9.7897 8.6981 9.82053 8.68535 9.84662 8.66562C9.87272 8.6459 9.89317 8.61989 9.90601 8.5901L9.91976 8.54358C9.92578 8.50168 9.91722 8.45902 9.89545 8.42251C9.87369 8.38601 9.84 8.3578 9.79987 8.34248L9.75787 8.33122L1.96886 7.29046C1.89472 7.28039 1.82523 7.24913 1.76902 7.20057C1.71281 7.15201 1.67237 7.08829 1.65271 7.01732L0.0338221 1.18544C-0.0144566 1.012 -0.010985 0.828578 0.0438234 0.657024C0.0986317 0.48547 0.202467 0.333011 0.342962 0.217807C0.483456 0.102602 0.654689 0.0295074 0.836265 0.00722833C1.01784 -0.0150508 1.20211 0.0144249 1.36712 0.0921444V0.0921444Z" fill="#1C2438"/>
</svg>
