<svg width="23" height="23" viewBox="0 0 23 23" fill="none" xmlns="http://www.w3.org/2000/svg">
<path d="M17.889 19.1666H3.83344V5.11103H12.2796L13.5573 3.83325H3.83344C3.49455 3.83325 3.16955 3.96787 2.92992 4.2075C2.69029 4.44713 2.55566 4.77214 2.55566 5.11103V19.1666C2.55566 19.5055 2.69029 19.8305 2.92992 20.0701C3.16955 20.3097 3.49455 20.4444 3.83344 20.4444H17.889C18.2279 20.4444 18.5529 20.3097 18.7925 20.0701C19.0322 19.8305 19.1668 19.5055 19.1668 19.1666V9.58325L17.889 10.861V19.1666Z" fill="#CCCCCC"/>
<path d="M21.4218 3.7312L19.2688 1.57815C19.1732 1.48233 19.0597 1.40632 18.9347 1.35445C18.8097 1.30258 18.6757 1.27588 18.5404 1.27588C18.4051 1.27588 18.2711 1.30258 18.1461 1.35445C18.0212 1.40632 17.9077 1.48233 17.8121 1.57815L9.05293 10.3884L8.34377 13.4615C8.31355 13.6104 8.31673 13.7643 8.35307 13.9118C8.3894 14.0594 8.458 14.1971 8.55391 14.315C8.64983 14.433 8.77069 14.5281 8.90779 14.5938C9.04489 14.6594 9.19483 14.6938 9.34682 14.6945C9.42538 14.7032 9.50465 14.7032 9.58321 14.6945L12.6818 14.0109L21.4218 5.18787C21.5176 5.09232 21.5937 4.9788 21.6455 4.85382C21.6974 4.72884 21.7241 4.59485 21.7241 4.45954C21.7241 4.32422 21.6974 4.19023 21.6455 4.06525C21.5937 3.94027 21.5176 3.82676 21.4218 3.7312V3.7312ZM12.0174 12.829L9.67904 13.3465L10.2221 11.0273L16.8154 4.38926L18.6171 6.19093L12.0174 12.829ZM19.339 5.46898L17.5374 3.66732L18.5277 2.65787L20.3421 4.47232L19.339 5.46898Z" fill="#CCCCCC"/>
</svg>
