<svg width="50" height="50" viewBox="0 0 50 50" fill="none" xmlns="http://www.w3.org/2000/svg">
<path d="M44.0842 40.8481C46.6423 37.7703 48.4214 34.1216 49.2712 30.2108C50.1209 26.2999 50.0162 22.242 48.966 18.3801C47.9157 14.5183 45.9508 10.9662 43.2374 8.02441C40.5241 5.08259 37.1421 2.83755 33.3775 1.47922C29.613 0.120896 25.5767 -0.310764 21.6101 0.220761C17.6434 0.752286 13.8631 2.23136 10.589 4.53286C7.31491 6.83436 4.64327 9.89057 2.80011 13.443C0.956955 16.9954 -0.00349587 20.9394 9.56112e-06 24.9415C0.00135471 30.7594 2.05156 36.391 5.79085 40.8481L5.75523 40.8784C5.87992 41.028 6.02242 41.1562 6.15067 41.3041C6.31098 41.4876 6.48376 41.6603 6.64942 41.8385C7.14817 42.38 7.66117 42.9001 8.1991 43.3881C8.36298 43.5378 8.5322 43.6767 8.69785 43.8192C9.26785 44.3108 9.85388 44.7775 10.4613 45.2121C10.5397 45.2656 10.6109 45.3351 10.6893 45.3903V45.3689C14.8612 48.3047 19.838 49.8803 24.9393 49.8803C30.0406 49.8803 35.0174 48.3047 39.1893 45.3689V45.3903C39.2677 45.3351 39.3371 45.2656 39.4173 45.2121C40.0229 44.7757 40.6107 44.3108 41.1807 43.8192C41.3464 43.6767 41.5156 43.536 41.6795 43.3881C42.2174 42.8983 42.7304 42.38 43.2292 41.8385C43.3948 41.6603 43.5658 41.4876 43.7279 41.3041C43.8544 41.1562 43.9987 41.028 44.1234 40.8766L44.0842 40.8481ZM24.9375 10.6915C26.5229 10.6915 28.0726 11.1616 29.3908 12.0424C30.7089 12.9232 31.7363 14.175 32.343 15.6397C32.9497 17.1044 33.1084 18.716 32.7991 20.2709C32.4898 21.8258 31.7264 23.254 30.6054 24.375C29.4844 25.4961 28.0562 26.2595 26.5013 26.5688C24.9464 26.878 23.3347 26.7193 21.8701 26.1126C20.4054 25.5059 19.1535 24.4786 18.2728 23.1604C17.392 21.8422 16.9219 20.2925 16.9219 18.7071C16.9219 16.5813 17.7664 14.5425 19.2696 13.0392C20.7728 11.536 22.8116 10.6915 24.9375 10.6915V10.6915ZM10.7 40.8481C10.7309 38.5092 11.6814 36.2766 13.3458 34.6332C15.0102 32.9898 17.2547 32.0677 19.5938 32.0665H30.2813C32.6203 32.0677 34.8648 32.9898 36.5292 34.6332C38.1937 36.2766 39.1441 38.5092 39.175 40.8481C35.2685 44.3684 30.1962 46.3167 24.9375 46.3167C19.6788 46.3167 14.6065 44.3684 10.7 40.8481V40.8481Z" fill="#1C2438"/>
</svg>
