<svg width="37" height="37" viewBox="0 0 37 37" fill="none" xmlns="http://www.w3.org/2000/svg">
<path fill-rule="evenodd" clip-rule="evenodd" d="M18.5001 1.54169C9.13446 1.54169 1.54175 9.1344 1.54175 18.5C1.54175 27.8656 9.13446 35.4584 18.5001 35.4584C27.8657 35.4584 35.4584 27.8656 35.4584 18.5C35.4584 9.1344 27.8657 1.54169 18.5001 1.54169ZM25.8507 15.6325C25.9861 15.4778 26.0891 15.2976 26.1538 15.1024C26.2185 14.9073 26.2435 14.7012 26.2273 14.4963C26.2112 14.2914 26.1542 14.0917 26.0598 13.9091C25.9653 13.7265 25.8353 13.5647 25.6774 13.4331C25.5195 13.3015 25.3368 13.2028 25.1402 13.1428C24.9436 13.0829 24.7369 13.0628 24.5324 13.0839C24.328 13.1049 24.1298 13.1667 23.9495 13.2655C23.7692 13.3643 23.6105 13.4982 23.4827 13.6592L16.8536 21.6126L13.4234 18.1809C13.1326 17.9001 12.7432 17.7447 12.339 17.7482C11.9347 17.7517 11.5481 17.9138 11.2622 18.1997C10.9764 18.4855 10.8143 18.8722 10.8108 19.2764C10.8072 19.6806 10.9626 20.0701 11.2435 20.3608L15.8685 24.9858C16.0199 25.1372 16.2013 25.2554 16.401 25.3328C16.6007 25.4102 16.8143 25.4452 17.0282 25.4354C17.2421 25.4257 17.4517 25.3715 17.6435 25.2763C17.8354 25.1811 18.0053 25.047 18.1424 24.8825L25.8507 15.6325Z" fill="white"/>
</svg>
